<?xml version="1.0" standalone="no"?>
<!DOCTYPE svg PUBLIC "-//W3C//DTD SVG 20010904//EN"
 "http://www.w3.org/TR/2001/REC-SVG-20010904/DTD/svg10.dtd">
<svg version="1.0" xmlns="http://www.w3.org/2000/svg"
 width="149.000000pt" height="98.000000pt" viewBox="0 0 149.000000 98.000000"
 preserveAspectRatio="xMidYMid meet">

<g transform="translate(0.000000,98.000000) scale(0.100000,-0.100000)"
fill="#000000" stroke="none">
<path d="M0 490 l0 -490 745 0 745 0 0 490 0 490 -745 0 -745 0 0 -490z m440
91 l28 -64 20 45 c11 26 23 56 27 67 4 15 15 21 36 21 16 0 29 -2 29 -5 0 -3
-20 -46 -45 -95 -35 -71 -45 -100 -45 -140 0 -47 -2 -50 -25 -50 -23 0 -25 3
-25 50 0 38 -9 68 -36 121 -19 39 -39 82 -45 96 -8 23 -7 24 23 21 28 -3 34
-9 58 -67z m349 63 c24 -5 31 -12 31 -30 0 -21 -3 -22 -54 -17 -51 5 -57 4
-85 -25 -65 -65 -18 -173 71 -160 17 2 24 10 26 31 3 24 0 27 -27 27 -26 0
-31 4 -31 25 0 24 3 25 55 25 l55 0 0 -70 0 -69 -42 -11 c-92 -25 -179 18
-194 95 -22 120 70 204 195 179z m347 -11 c-4 -10 -34 -84 -68 -165 -54 -132
-64 -148 -85 -148 -22 0 -23 1 -10 33 7 17 38 92 67 165 48 118 57 132 78 132
19 0 23 -4 18 -17z m-846 -82 c0 -13 -19 -26 -67 -48 l-68 -29 68 -24 c49 -17
67 -28 67 -42 0 -10 -2 -18 -5 -18 -20 0 -161 72 -163 84 -2 10 22 28 75 55
91 46 93 47 93 22z m1001 -21 c55 -28 79 -46 77 -56 -3 -17 -164 -91 -174 -81
-15 15 9 35 68 57 l63 24 -67 30 c-46 21 -68 37 -68 49 0 24 11 22 101 -23z"/>
</g>
</svg>
